<?xml version="1.0" encoding="utf-8"?>
<!-- Svg Vector Icons : http://www.onlinewebfonts.com/icon -->
<!DOCTYPE svg PUBLIC "-//W3C//DTD SVG 1.1//EN" "http://www.w3.org/Graphics/SVG/1.1/DTD/svg11.dtd">
<svg version="1.1" xmlns="http://www.w3.org/2000/svg" xmlns:xlink="http://www.w3.org/1999/xlink" x="0px" y="0px" viewBox="0 0 1000 1000" enable-background="new 0 0 1000 1000" xml:space="preserve">
<metadata> Svg Vector Icons : http://www.onlinewebfonts.com/icon </metadata>
<g><g transform="translate(0.000000,511.000000) scale(0.100000,-0.100000)"><path d="M5174.9,4982.9c-130.2-35.7-255.3-140.4-308.9-260.4c-40.8-91.9-48.5-173.6-48.5-709.7v-607.6h485.1h485.1v607.6c0,536.1-7.7,617.8-48.5,709.7c-56.1,125.1-178.7,224.7-321.7,262.9C5300,5018.6,5294.9,5018.6,5174.9,4982.9z"/><path d="M4357.9,4423.8c-546.3-222.1-1005.9-691.9-1299.5-1327.6c-89.4-194-102.1-209.3-176.2-214.5c-122.5-10.2-158.3-53.6-158.3-191.5c0-122.5,2.6-125.1,219.6-326.8l217-204.2l-89.4-137.9c-109.8-168.5-153.2-337-135.3-528.5c20.4-245.1,176.2-485.1,377.9-589.7c84.2-43.4,99.6-71.5,214.5-382.9c347.2-957.4,778.7-1526.7,1263.7-1672.2c194-56.2,584.6-76.6,817-40.8c638.3,99.6,1087.6,645.9,1503.7,1827.9c71.5,199.1,91.9,237.4,160.8,265.5c114.9,51.1,273.2,219.6,334.4,357.4c112.3,247.6,51.1,656.1-125.1,822.1c-33.2,30.6-61.3,63.8-61.3,74c0,7.7,109.8,104.7,242.5,214.5c199.1,160.8,242.5,209.4,242.5,265.5c0,137.9-30.6,188.9-140.4,234.9c-94.5,40.8-117.4,71.5-224.7,278.3c-178.7,352.3-306.4,525.9-577,794c-296.1,291-543.8,444.2-888.4,548.9l-58.7,15.3l-5.1-658.7l-7.6-658.7l-694.4-7.7l-697-5.1v663.8c0,513.2-7.7,663.8-30.6,663.8C4564.7,4502.9,4462.6,4467.2,4357.9,4423.8z M3775.8,1656.3c45.9-7.7,745.5-12.8,1554.8-7.7l1468,7.7l132.8,112.3c79.2,63.8,148.1,104.7,171.1,94.5c66.4-25.5,140.4-176.2,140.4-291c0-196.6-102.1-326.8-278.3-357.4l-107.2-17.9l-127.7-382.9C6589.2,392.6,6385-56.7,6226.7-289.1c-56.2-81.7-176.2-219.6-268.1-303.8c-201.7-188.9-283.4-214.5-699.5-214.5c-265.5,0-316.6,7.7-436.6,63.8c-357.4,165.9-691.9,694.4-980.4,1552.2c-120,354.9-143,400.8-191.5,400.8c-285.9,0-439.1,390.6-234.9,607.6l53.6,58.7l109.8-102.1C3643.1,1715,3727.3,1666.5,3775.8,1656.3z"/><path d="M2034.7-710.3c-74-160.8-114.9-217-181.3-250.2c-79.1-43.4-89.4-40.8-321.7,35.8l-237.4,76.6l-273.2-273.2L748-1394.5l76.6-237.4c76.6-232.3,79.1-242.5,35.7-321.7c-33.2-66.4-89.4-107.2-250.2-181.3l-209.4-99.5v-403.4v-405.9l206.8-99.6c163.4-81.7,217-120,252.7-191.5c45.9-86.8,43.4-89.4-35.7-311.5l-79.1-224.7l283.4-283.4l283.4-283.4l219.6,79.1c209.4,74,224.7,74,311.5,38.3c76.6-30.6,107.2-71.5,196.6-252.7l107.2-217h398.3h398.3l107.2,219.6c89.4,178.7,122.5,224.7,196.6,252.7c79.1,35.8,99.6,33.2,306.4-43.4l222.1-79.1l280.8,283.4L4340-3876l-79.1,222.1c-76.6,206.8-79.2,227.2-43.4,306.4c28.1,74,74,107.2,252.7,196.6l219.6,107.2v398.3v398.3l-217,107.2c-181.3,89.3-222.1,120-252.7,196.6c-35.7,86.8-35.7,102.1,38.3,311.5l79.1,219.6L4054.1-1129l-283.4,283.4l-224.7-79.1c-222.1-79.2-224.7-81.7-311.5-35.8c-71.5,35.8-109.8,89.4-191.5,252.8L2943.6-501h-405.9h-403.4L2034.7-710.3z M3009.9-1695.8c199.1-97,390.6-291,497.8-510.6c66.4-132.8,71.5-168.5,71.5-439.1c0-273.2-5.1-303.8-74-446.8c-97-196.6-316.6-416.1-513.2-513.1c-143-68.9-173.6-74-446.8-74c-270.6,0-306.4,5.1-439.1,71.5c-217,107.2-413.6,298.7-510.6,497.8c-79.1,163.4-84.2,183.8-84.2,464.7c0,262.9,7.7,308.9,68.9,439.1c74,158.3,257.8,372.7,393.2,457c191.5,117.4,339.5,153.2,610.2,143C2810.8-1614.1,2859.3-1624.3,3009.9-1695.8z"/><path d="M6071-1448.1c-439.1-408.5-962.5-469.8-1381.2-160.8l-148.1,109.8l-66.4-181.3c-38.3-99.5-63.8-183.8-61.3-186.4c5.1-5.1,114.9-61.3,245.1-125.1l234.9-117.5V-2648v-536.1L4651.5-3299c-132.8-61.3-242.5-114.9-242.5-120c0-2.5,38.3-114.9,86.8-250.2l89.4-245.1l-380.4-377.8l-382.9-380.4l-222.1,71.5c-125.1,40.8-237.4,79.1-255.3,84.2c-28.1,10.2-84.2-74-135.3-209.4l-25.5-63.8h3209.1h3206.5l-15.3,365.1c-10.2,265.5-30.6,428.9-76.6,607.6c-260.4,1005.9-1115.7,1848.4-2315.6,2282.4c-171.1,61.3-880.8,245.1-937,242.5C6244.6-1294.9,6160.3-1363.9,6071-1448.1z"/></g></g>
</svg>