<?xml version="1.0" encoding="utf-8"?>
<!-- Generator: Adobe Illustrator 24.2.0, SVG Export Plug-In . SVG Version: 6.00 Build 0)  -->
<svg version="1.1" id="Layer_1" xmlns="http://www.w3.org/2000/svg" xmlns:xlink="http://www.w3.org/1999/xlink" x="0px" y="0px"
	 viewBox="0 0 822.5 203.5" style="enable-background:new 0 0 822.5 203.5;" xml:space="preserve">
<style type="text/css">
	.st0{fill:#3D3D3D;}
	.st1{fill:#BFBEBE;}
	.st2{fill:#007A91;}
	.st3{fill:#F69439;}
</style>
<g>
	<path class="st0" d="M16.4,176v12.7h-2.2V157h7.7c3.3,0,5.8,0.8,7.5,2.3c1.7,1.5,2.6,3.7,2.6,6.6c0,3-1,5.4-2.9,7.3
		c-1.9,1.9-4.6,2.8-8.1,2.8H16.4z M16.4,159v15H21c2.9,0,5-0.7,6.5-2c1.5-1.4,2.2-3.3,2.2-5.8c0-4.8-2.7-7.2-8.2-7.2H16.4z"/>
	<path class="st0" d="M45,189.3c-3.3,0-5.9-1.1-7.8-3.3s-2.9-5-2.9-8.5c0-3.8,1-6.7,3-8.8c2-2.1,4.7-3.2,8-3.2
		c3.2,0,5.8,1.1,7.7,3.2c1.9,2.1,2.8,5,2.8,8.8c0,3.5-1,6.4-2.9,8.6S48.3,189.3,45,189.3z M45.2,167.4c-2.7,0-4.8,0.9-6.4,2.7
		c-1.6,1.8-2.4,4.3-2.4,7.5c0,3,0.8,5.4,2.3,7.2c1.5,1.8,3.7,2.7,6.4,2.7c2.7,0,4.8-0.9,6.3-2.7c1.5-1.8,2.2-4.2,2.2-7.4
		c0-3.2-0.7-5.7-2.2-7.4C49.9,168.2,47.9,167.4,45.2,167.4z"/>
	<path class="st0" d="M80.6,188.7h-1.9l-4.9-17.1c-0.1-0.5-0.3-1.1-0.4-1.9h-0.1c0,0.3-0.2,1-0.4,1.9l-5.5,17.1h-1.9l-6.8-22.7h2.3
		l5.3,18.1c0.1,0.5,0.2,1.1,0.3,1.9h0.2c0-0.4,0.2-1.1,0.4-1.9l5.8-18.1h1.4l5.1,18.1c0.1,0.4,0.2,1.1,0.3,1.9h0.2
		c0-0.4,0.1-1.1,0.4-1.9l5.4-18.1h2.1L80.6,188.7z"/>
	<path class="st0" d="M92.5,177.5c0,3.1,0.7,5.5,2.2,7.3c1.4,1.8,3.4,2.6,5.9,2.6c2.5,0,5-0.9,7.4-2.8v2.2c-2.3,1.7-5,2.5-7.9,2.5
		c-2.9,0-5.3-1-7.1-3.1c-1.8-2.1-2.7-5.1-2.7-8.9c0-3.3,0.9-6.1,2.8-8.4c1.9-2.3,4.3-3.4,7.3-3.4c2.8,0,5,1,6.5,3
		c1.5,2,2.3,4.7,2.3,8.1v0.9H92.5z M107.2,175.6c-0.1-2.6-0.7-4.6-1.9-6.1c-1.2-1.4-2.8-2.2-4.8-2.2c-2.1,0-3.9,0.7-5.3,2.1
		c-1.4,1.4-2.3,3.5-2.6,6.1H107.2z"/>
	<path class="st0" d="M125.6,168.2c-0.7-0.5-1.5-0.7-2.4-0.7c-1.8,0-3.3,0.9-4.5,2.8c-1.2,1.8-1.8,4.5-1.8,7.9v10.6h-2v-22.7h2v5
		h0.1c0.5-1.7,1.3-3.1,2.5-4c1.1-1,2.4-1.4,3.9-1.4c0.8,0,1.6,0.1,2.3,0.4V168.2z"/>
	<path class="st0" d="M129.5,177.5c0,3.1,0.7,5.5,2.2,7.3c1.4,1.8,3.4,2.6,5.9,2.6c2.5,0,5-0.9,7.4-2.8v2.2c-2.3,1.7-5,2.5-7.9,2.5
		c-2.9,0-5.3-1-7.1-3.1c-1.8-2.1-2.7-5.1-2.7-8.9c0-3.3,0.9-6.1,2.8-8.4c1.9-2.3,4.3-3.4,7.3-3.4c2.8,0,5,1,6.5,3
		c1.5,2,2.3,4.7,2.3,8.1v0.9H129.5z M144.1,175.6c-0.1-2.6-0.7-4.6-1.9-6.1c-1.2-1.4-2.8-2.2-4.8-2.2c-2.1,0-3.9,0.7-5.3,2.1
		c-1.4,1.4-2.3,3.5-2.6,6.1H144.1z"/>
	<path class="st0" d="M168,188.7v-4.1h-0.1c-0.7,1.4-1.8,2.6-3.3,3.4c-1.4,0.8-3.1,1.3-4.9,1.3c-2.8,0-5.1-1-6.8-3.1
		c-1.8-2-2.6-4.8-2.6-8.4c0-3.7,1-6.6,2.9-8.9c1.9-2.3,4.4-3.4,7.5-3.4c3.4,0,5.8,1.4,7.3,4.2h0.1v-14.5h2v33.6H168z M168,174.9
		c0-2.1-0.7-3.9-2-5.4c-1.3-1.5-3.1-2.2-5.4-2.2c-2.4,0-4.3,0.9-5.9,2.7c-1.5,1.8-2.3,4.3-2.3,7.5c0,3.1,0.7,5.5,2.1,7.3
		c1.4,1.7,3.2,2.6,5.4,2.6c2.6,0,4.6-0.8,6-2.4c1.4-1.6,2.1-3.6,2.1-5.9V174.9z"/>
	<path class="st0" d="M191.8,184.7L191.8,184.7l-0.1,4h-2v-33.6h2v15.6h0.1c0.8-1.7,2-3,3.5-3.9c1.5-0.9,3.2-1.4,5-1.4
		c2.9,0,5.1,1,6.7,3c1.6,2,2.4,4.7,2.4,8.1c0,3.8-0.9,6.9-2.8,9.2c-1.9,2.3-4.3,3.5-7.3,3.5C196,189.3,193.5,187.8,191.8,184.7z
		 M191.7,176.3v2.9c0,2.3,0.7,4.2,2.1,5.9c1.4,1.6,3.3,2.4,5.6,2.4c2.3,0,4.2-1,5.6-3c1.4-2,2.2-4.6,2.2-7.8c0-2.8-0.7-5.1-2-6.8
		c-1.3-1.7-3.1-2.5-5.3-2.5c-2.6,0-4.7,0.9-6.1,2.7C192.5,171.8,191.7,173.9,191.7,176.3z"/>
	<path class="st0" d="M220.6,193.4c-0.8,2-1.7,3.5-2.7,4.5c-1,1-2.3,1.5-3.9,1.5c-0.7,0-1.3-0.1-1.8-0.3v-2c0.5,0.2,1.2,0.3,1.9,0.3
		c1.8,0,3.2-1.3,4.3-3.8l2.1-5l-8.6-22.5h2.3l6.8,18.5c0.1,0.4,0.3,0.7,0.3,0.9c0.1,0.3,0.1,0.5,0.2,0.8h0.1l0.5-1.5l7.3-18.6h2.2
		L220.6,193.4z"/>
	<path class="st0" d="M248.5,188.7V157h2.2v31.7H248.5z"/>
	<path class="st0" d="M273.8,188.7v-13.2c0-5.4-2-8.2-5.9-8.2c-2.2,0-4,0.8-5.4,2.4c-1.4,1.6-2.1,3.6-2.1,5.9v13h-2v-22.7h2v4.1h0.1
		c1.7-3.1,4.2-4.7,7.7-4.7c2.5,0,4.3,0.8,5.6,2.4s1.9,4,1.9,7v13.8H273.8z"/>
	<path class="st0" d="M291.6,188.4c-1.1,0.5-2.1,0.8-3,0.8c-3.4,0-5-2-5-6v-15.2h-4.1v-1.9h4.1v-5.9c0.3-0.1,0.7-0.2,1-0.4
		c0.4-0.1,0.7-0.2,1-0.3v6.6h6v1.9h-6v15c0,1.6,0.2,2.7,0.7,3.4c0.5,0.7,1.3,1.1,2.5,1.1c0.8,0,1.8-0.3,2.7-0.8V188.4z"/>
	<path class="st0" d="M296.6,177.5c0,3.1,0.7,5.5,2.2,7.3c1.4,1.8,3.4,2.6,5.9,2.6c2.5,0,5-0.9,7.4-2.8v2.2c-2.3,1.7-5,2.5-7.9,2.5
		c-2.9,0-5.3-1-7.1-3.1c-1.8-2.1-2.7-5.1-2.7-8.9c0-3.3,0.9-6.1,2.8-8.4c1.9-2.3,4.3-3.4,7.3-3.4c2.8,0,5,1,6.5,3
		c1.5,2,2.3,4.7,2.3,8.1v0.9H296.6z M311.3,175.6c-0.1-2.6-0.7-4.6-1.9-6.1c-1.2-1.4-2.8-2.2-4.8-2.2c-2.1,0-3.9,0.7-5.3,2.1
		c-1.4,1.4-2.3,3.5-2.6,6.1H311.3z"/>
	<path class="st0" d="M337.2,187.1c0,4.3-0.9,7.4-2.8,9.4c-1.9,2-4.8,3-8.7,3c-2.2,0-4.4-0.6-6.8-1.7v-2.1c2.4,1.3,4.7,2,6.8,2
		c6.3,0,9.4-3.3,9.4-9.9v-2.9H335c-1.8,3.1-4.5,4.6-8.2,4.6c-2.8,0-5.1-1-6.8-3c-1.8-2-2.6-4.8-2.6-8.5s1-6.6,2.9-8.9
		c1.9-2.3,4.4-3.4,7.5-3.4c3.3,0,5.8,1.4,7.3,4.1h0.1v-3.6h2V187.1z M335.1,174.8c0-2-0.7-3.7-2-5.2c-1.4-1.5-3.1-2.2-5.3-2.2
		c-2.5,0-4.5,0.9-6,2.8c-1.5,1.9-2.3,4.4-2.3,7.4c0,3.1,0.7,5.5,2.1,7.2c1.4,1.7,3.2,2.6,5.5,2.6c2.4,0,4.4-0.8,5.8-2.4
		c1.4-1.6,2.2-3.5,2.2-5.8V174.8z"/>
	<path class="st0" d="M355.1,168.2c-0.7-0.5-1.5-0.7-2.4-0.7c-1.8,0-3.3,0.9-4.5,2.8c-1.2,1.8-1.8,4.5-1.8,7.9v10.6h-2v-22.7h2v5
		h0.1c0.5-1.7,1.3-3.1,2.5-4c1.1-1,2.4-1.4,3.9-1.4c0.8,0,1.6,0.1,2.3,0.4V168.2z"/>
	<path class="st0" d="M372.9,188.7v-4.5h-0.1c-0.7,1.5-1.8,2.8-3.2,3.7s-2.9,1.4-4.6,1.4c-2.2,0-3.9-0.6-5.1-1.8
		c-1.3-1.2-1.9-2.7-1.9-4.6c0-4,2.6-6.3,7.9-7.2l7-1c0-4.9-1.8-7.3-5.5-7.3c-2.5,0-4.9,1-7.3,3v-2.5c0.8-0.7,2-1.2,3.4-1.7
		c1.4-0.5,2.8-0.7,4.1-0.7c2.3,0,4.1,0.7,5.4,2.2s1.9,3.5,1.9,6.3v14.7H372.9z M366.7,177.4c-2.4,0.3-4,0.9-5,1.6
		c-1,0.8-1.4,2-1.4,3.7c0,1.3,0.4,2.5,1.3,3.3c0.9,0.9,2.1,1.3,3.7,1.3c2.2,0,4-0.8,5.4-2.4c1.4-1.6,2.2-3.7,2.2-6.3v-2.2
		L366.7,177.4z"/>
	<path class="st0" d="M381.8,188.7v-33.6h2v33.6H381.8z"/>
	<path class="st0" d="M403.9,188.7V157h7.9c5.3,0,9.3,1.3,12,3.9c2.7,2.6,4.1,6.5,4.1,11.5c0,4.8-1.5,8.8-4.4,11.8
		c-2.9,3-7,4.5-12.2,4.5H403.9z M406.1,159v27.7h5c4.7,0,8.3-1.2,10.8-3.7c2.5-2.4,3.8-6,3.8-10.6c0-9-4.7-13.5-14.2-13.5H406.1z"/>
	<path class="st0" d="M434.5,177.5c0,3.1,0.7,5.5,2.2,7.3c1.4,1.8,3.4,2.6,5.9,2.6c2.5,0,5-0.9,7.4-2.8v2.2c-2.3,1.7-5,2.5-7.9,2.5
		c-2.9,0-5.3-1-7.1-3.1c-1.8-2.1-2.7-5.1-2.7-8.9c0-3.3,0.9-6.1,2.8-8.4c1.9-2.3,4.3-3.4,7.3-3.4c2.8,0,5,1,6.5,3
		c1.5,2,2.3,4.7,2.3,8.1v0.9H434.5z M449.2,175.6c-0.1-2.6-0.7-4.6-1.9-6.1c-1.2-1.4-2.8-2.2-4.8-2.2c-2.1,0-3.9,0.7-5.3,2.1
		c-1.4,1.4-2.3,3.5-2.6,6.1H449.2z"/>
	<path class="st0" d="M455.8,187.7v-2.5c0.8,0.7,1.7,1.2,2.8,1.6c1.1,0.4,2,0.6,2.8,0.6c3.6,0,5.3-1.5,5.3-4.4c0-1-0.4-1.9-1.2-2.6
		c-0.8-0.7-2.1-1.4-3.8-2.2c-2.2-0.9-3.7-1.9-4.6-2.9c-0.9-1-1.3-2.2-1.3-3.7c0-1.8,0.7-3.3,2.1-4.5c1.4-1.1,3.1-1.7,5.2-1.7
		c1.9,0,3.6,0.4,5,1.2v2.3c-1.7-1.1-3.4-1.6-5.2-1.6c-1.5,0-2.7,0.4-3.6,1.2c-0.9,0.8-1.4,1.8-1.4,3c0,1.1,0.3,2,0.9,2.6
		c0.6,0.7,1.8,1.4,3.8,2.3c2.4,1.1,4,2,4.9,3c0.9,0.9,1.3,2.1,1.3,3.6c0,1.8-0.7,3.3-2,4.5c-1.4,1.2-3.2,1.8-5.6,1.8
		C459.1,189.3,457.2,188.8,455.8,187.7z"/>
	<path class="st0" d="M475.5,160.4c-0.4,0-0.8-0.2-1.2-0.5c-0.3-0.3-0.5-0.7-0.5-1.2c0-0.5,0.2-0.9,0.5-1.2c0.3-0.3,0.7-0.5,1.2-0.5
		c0.5,0,0.9,0.1,1.2,0.4c0.3,0.3,0.5,0.7,0.5,1.2c0,0.5-0.2,0.9-0.5,1.2C476.4,160.2,476,160.4,475.5,160.4z M474.5,188.7v-22.7h2
		v22.7H474.5z"/>
	<path class="st0" d="M502,187.1c0,4.3-0.9,7.4-2.8,9.4c-1.9,2-4.8,3-8.7,3c-2.2,0-4.4-0.6-6.8-1.7v-2.1c2.4,1.3,4.7,2,6.8,2
		c6.3,0,9.4-3.3,9.4-9.9v-2.9h-0.1c-1.8,3.1-4.5,4.6-8.2,4.6c-2.8,0-5.1-1-6.8-3c-1.8-2-2.6-4.8-2.6-8.5s1-6.6,2.9-8.9
		c1.9-2.3,4.4-3.4,7.5-3.4c3.3,0,5.8,1.4,7.3,4.1h0.1v-3.6h2V187.1z M499.9,174.8c0-2-0.7-3.7-2-5.2c-1.4-1.5-3.1-2.2-5.3-2.2
		c-2.5,0-4.5,0.9-6,2.8c-1.5,1.9-2.3,4.4-2.3,7.4c0,3.1,0.7,5.5,2.1,7.2c1.4,1.7,3.2,2.6,5.5,2.6c2.4,0,4.4-0.8,5.8-2.4
		c1.4-1.6,2.2-3.5,2.2-5.8V174.8z"/>
	<path class="st0" d="M524.6,188.7v-13.2c0-5.4-2-8.2-5.9-8.2c-2.2,0-4,0.8-5.4,2.4c-1.4,1.6-2.1,3.6-2.1,5.9v13h-2v-22.7h2v4.1h0.1
		c1.7-3.1,4.2-4.7,7.7-4.7c2.5,0,4.3,0.8,5.6,2.4s1.9,4,1.9,7v13.8H524.6z"/>
	<path class="st0" d="M570.2,188.7l-4.3-4.2c-3,3.1-6.5,4.7-10.6,4.7c-3.1,0-5.5-0.8-7.3-2.4c-1.7-1.6-2.6-3.6-2.6-6.1
		c0-4.1,2.5-7.2,7.4-9.4c-2.4-2.8-3.6-5.3-3.6-7.6c0-2.1,0.7-3.8,2.2-5.2c1.5-1.4,3.3-2.1,5.6-2.1c2.1,0,3.8,0.6,5,1.8
		c1.2,1.2,1.8,2.7,1.8,4.6c0,2-0.6,3.7-1.8,5.2c-1.2,1.4-3.2,2.7-5.8,3.9c2.2,2.3,5.5,5.5,9.7,9.6c1.8-2.7,2.8-5.9,2.9-9.6h2.1
		c-0.1,3.9-1.3,7.6-3.7,11c2.5,2.5,4.5,4.4,6,5.8L570.2,188.7z M564.6,183.2c-4.9-4.7-8.4-8.2-10.4-10.4c-4.4,1.9-6.6,4.5-6.6,7.8
		c0,2,0.7,3.6,2.1,4.9c1.4,1.3,3.3,1.9,5.8,1.9C558.9,187.4,561.9,186,564.6,183.2z M554.8,170.5c2.6-1.1,4.4-2.3,5.4-3.4
		c1-1.1,1.5-2.5,1.5-4c0-1.5-0.5-2.6-1.4-3.5c-0.9-0.9-2.1-1.3-3.5-1.3c-1.7,0-3,0.5-4,1.6c-1,1.1-1.5,2.4-1.5,3.9
		C551.3,165.7,552.5,168,554.8,170.5z"/>
	<path class="st0" d="M590.4,188.7V157h14.8v2h-12.6v12.7h11.7v2h-11.7v13h13.4v2H590.4z"/>
	<path class="st0" d="M628,188.7v-13.2c0-5.4-2-8.2-5.9-8.2c-2.2,0-4,0.8-5.4,2.4c-1.4,1.6-2.1,3.6-2.1,5.9v13h-2v-22.7h2v4.1h0.1
		c1.7-3.1,4.2-4.7,7.7-4.7c2.5,0,4.3,0.8,5.6,2.4s1.9,4,1.9,7v13.8H628z"/>
	<path class="st0" d="M655,187.1c0,4.3-0.9,7.4-2.8,9.4c-1.9,2-4.8,3-8.7,3c-2.2,0-4.4-0.6-6.8-1.7v-2.1c2.4,1.3,4.7,2,6.8,2
		c6.3,0,9.4-3.3,9.4-9.9v-2.9h-0.1c-1.8,3.1-4.5,4.6-8.2,4.6c-2.8,0-5.1-1-6.8-3c-1.8-2-2.6-4.8-2.6-8.5s1-6.6,2.9-8.9
		c1.9-2.3,4.4-3.4,7.5-3.4c3.3,0,5.8,1.4,7.3,4.1h0.1v-3.6h2V187.1z M653,174.8c0-2-0.7-3.7-2-5.2c-1.4-1.5-3.1-2.2-5.3-2.2
		c-2.5,0-4.5,0.9-6,2.8c-1.5,1.9-2.3,4.4-2.3,7.4c0,3.1,0.7,5.5,2.1,7.2c1.4,1.7,3.2,2.6,5.5,2.6c2.4,0,4.4-0.8,5.8-2.4
		c1.4-1.6,2.2-3.5,2.2-5.8V174.8z"/>
	<path class="st0" d="M663.3,160.4c-0.4,0-0.8-0.2-1.2-0.5c-0.3-0.3-0.5-0.7-0.5-1.2c0-0.5,0.2-0.9,0.5-1.2c0.3-0.3,0.7-0.5,1.2-0.5
		c0.5,0,0.9,0.1,1.2,0.4c0.3,0.3,0.5,0.7,0.5,1.2c0,0.5-0.2,0.9-0.5,1.2C664.1,160.2,663.7,160.4,663.3,160.4z M662.3,188.7v-22.7h2
		v22.7H662.3z"/>
	<path class="st0" d="M687,188.7v-13.2c0-5.4-2-8.2-5.9-8.2c-2.2,0-4,0.8-5.4,2.4c-1.4,1.6-2.1,3.6-2.1,5.9v13h-2v-22.7h2v4.1h0.1
		c1.7-3.1,4.2-4.7,7.7-4.7c2.5,0,4.3,0.8,5.6,2.4s1.9,4,1.9,7v13.8H687z"/>
	<path class="st0" d="M696.3,177.5c0,3.1,0.7,5.5,2.2,7.3c1.4,1.8,3.4,2.6,5.9,2.6c2.5,0,5-0.9,7.4-2.8v2.2c-2.3,1.7-5,2.5-7.9,2.5
		c-2.9,0-5.3-1-7.1-3.1c-1.8-2.1-2.7-5.1-2.7-8.9c0-3.3,0.9-6.1,2.8-8.4c1.9-2.3,4.3-3.4,7.3-3.4c2.8,0,5,1,6.5,3
		c1.5,2,2.3,4.7,2.3,8.1v0.9H696.3z M711,175.6c-0.1-2.6-0.7-4.6-1.9-6.1c-1.2-1.4-2.8-2.2-4.8-2.2c-2.1,0-3.9,0.7-5.3,2.1
		c-1.4,1.4-2.3,3.5-2.6,6.1H711z"/>
	<path class="st0" d="M719.2,177.5c0,3.1,0.7,5.5,2.2,7.3c1.4,1.8,3.4,2.6,5.9,2.6c2.5,0,5-0.9,7.4-2.8v2.2c-2.3,1.7-5,2.5-7.9,2.5
		c-2.9,0-5.3-1-7.1-3.1c-1.8-2.1-2.7-5.1-2.7-8.9c0-3.3,0.9-6.1,2.8-8.4c1.9-2.3,4.3-3.4,7.3-3.4c2.8,0,5,1,6.5,3
		c1.5,2,2.3,4.7,2.3,8.1v0.9H719.2z M733.9,175.6c-0.1-2.6-0.7-4.6-1.9-6.1s-2.8-2.2-4.8-2.2c-2.1,0-3.9,0.7-5.3,2.1
		c-1.4,1.4-2.3,3.5-2.6,6.1H733.9z"/>
	<path class="st0" d="M752.3,168.2c-0.7-0.5-1.5-0.7-2.4-0.7c-1.8,0-3.3,0.9-4.5,2.8c-1.2,1.8-1.8,4.5-1.8,7.9v10.6h-2v-22.7h2v5
		h0.1c0.5-1.7,1.3-3.1,2.5-4c1.1-1,2.4-1.4,3.9-1.4c0.8,0,1.6,0.1,2.3,0.4V168.2z"/>
	<path class="st0" d="M757.6,160.4c-0.4,0-0.8-0.2-1.2-0.5c-0.3-0.3-0.5-0.7-0.5-1.2c0-0.5,0.2-0.9,0.5-1.2c0.3-0.3,0.7-0.5,1.2-0.5
		c0.5,0,0.9,0.1,1.2,0.4c0.3,0.3,0.5,0.7,0.5,1.2c0,0.5-0.2,0.9-0.5,1.2C758.4,160.2,758,160.4,757.6,160.4z M756.6,188.7v-22.7h2
		v22.7H756.6z"/>
	<path class="st0" d="M781.3,188.7v-13.2c0-5.4-2-8.2-5.9-8.2c-2.2,0-4,0.8-5.4,2.4c-1.4,1.6-2.1,3.6-2.1,5.9v13h-2v-22.7h2v4.1h0.1
		c1.7-3.1,4.2-4.7,7.7-4.7c2.5,0,4.3,0.8,5.6,2.4s1.9,4,1.9,7v13.8H781.3z"/>
	<path class="st0" d="M808.3,187.1c0,4.3-0.9,7.4-2.8,9.4c-1.9,2-4.8,3-8.7,3c-2.2,0-4.4-0.6-6.8-1.7v-2.1c2.4,1.3,4.7,2,6.8,2
		c6.3,0,9.4-3.3,9.4-9.9v-2.9h-0.1c-1.8,3.1-4.5,4.6-8.2,4.6c-2.8,0-5.1-1-6.8-3c-1.8-2-2.6-4.8-2.6-8.5s1-6.6,2.9-8.9
		c1.9-2.3,4.4-3.4,7.5-3.4c3.3,0,5.8,1.4,7.3,4.1h0.1v-3.6h2V187.1z M806.2,174.8c0-2-0.7-3.7-2-5.2c-1.4-1.5-3.1-2.2-5.3-2.2
		c-2.5,0-4.5,0.9-6,2.8c-1.5,1.9-2.3,4.4-2.3,7.4c0,3.1,0.7,5.5,2.1,7.2c1.4,1.7,3.2,2.6,5.5,2.6c2.4,0,4.4-0.8,5.8-2.4
		c1.4-1.6,2.2-3.5,2.2-5.8V174.8z"/>
</g>
<g>
	<g>
		<path class="st1" d="M105.1,139.7H18.5V13.3h86.7v25.3H43.8v25.3h41.5v25.3H43.8v25.2h61.4V139.7z"/>
		<path class="st1" d="M209,139.7h-5.8l-9.3-13c-2.3,2.1-4.7,4-7.3,5.8c-2.6,1.8-5.2,3.4-8.1,4.7c-2.8,1.3-5.7,2.4-8.7,3.1
			c-3,0.8-6,1.1-9,1.1c-6.6,0-12.9-1.3-18.7-3.7c-5.9-2.5-11-6-15.3-10.4c-4.4-4.4-7.8-9.7-10.4-15.8c-2.5-6.1-3.8-12.7-3.8-19.9
			c0-7.1,1.3-13.7,3.8-19.8c2.5-6.1,6-11.4,10.4-15.9c4.4-4.5,9.5-8,15.3-10.5c5.8-2.5,12.1-3.8,18.7-3.8c2.1,0,4.3,0.2,6.6,0.5
			c2.3,0.4,4.5,0.9,6.6,1.7c2.1,0.8,4.2,1.8,6,3.1c1.9,1.3,3.5,2.9,4.8,4.8V7.7H209V139.7z M184.7,91.7c0-3.3-0.6-6.5-1.9-9.6
			c-1.3-3.1-3-5.8-5.2-8.2c-2.2-2.4-4.7-4.3-7.6-5.7c-2.9-1.4-6-2.2-9.3-2.2s-6.4,0.6-9.3,1.8c-2.9,1.2-5.4,2.9-7.6,5.1
			c-2.1,2.2-3.8,4.9-5.1,8.1c-1.2,3.2-1.9,6.8-1.9,10.8c0,3.5,0.6,6.8,1.9,9.9c1.2,3.1,2.9,5.8,5.1,8.2c2.1,2.4,4.7,4.2,7.6,5.6
			c2.9,1.4,6,2,9.3,2s6.4-0.7,9.3-2.2c2.9-1.4,5.5-3.4,7.6-5.7c2.2-2.4,3.9-5.1,5.2-8.2C184.1,98.1,184.7,95,184.7,91.7z"/>
		<path class="st1" d="M296.7,128.7c-1.9,1.8-4,3.4-6.2,5c-2.2,1.6-4.5,2.9-6.9,4.1c-2.4,1.1-4.9,2.1-7.5,2.7c-2.6,0.7-5.2,1-7.8,1
			c-5.8,0-11.3-1-16.4-3.1s-9.6-5-13.4-8.8c-3.9-3.8-6.9-8.4-9.1-13.8c-2.2-5.4-3.3-11.5-3.3-18.3V45.3h24v52.2c0,3.2,0.5,6,1.5,8.5
			c1,2.5,2.3,4.6,3.9,6.3c1.6,1.7,3.6,3,5.8,3.9c2.2,0.9,4.6,1.3,7.1,1.3c2.5,0,4.8-0.6,7-1.7c2.2-1.1,4.1-2.7,5.8-4.5
			c1.6-1.9,2.9-4,3.9-6.4c0.9-2.4,1.4-4.8,1.4-7.4V45.3h24.1v94.4h-5.8L296.7,128.7z"/>
		<path class="st1" d="M423.3,91.7c0,7.4-1.3,14.2-3.8,20.3c-2.5,6.1-6,11.4-10.3,15.7c-4.4,4.4-9.4,7.8-15.3,10.2
			c-5.8,2.4-12.1,3.6-18.8,3.6c-6.6,0-12.9-1.2-18.7-3.7c-5.9-2.5-11-5.9-15.3-10.3c-4.4-4.4-7.8-9.7-10.4-15.7
			c-2.5-6.1-3.8-12.8-3.8-20.1V7.7H351v44.1c1.3-1.6,2.9-3.1,4.7-4.4c1.9-1.3,3.9-2.4,6-3.2c2.1-0.8,4.4-1.5,6.7-1.9
			c2.3-0.4,4.5-0.7,6.7-0.7c6.7,0,13,1.2,18.8,3.7c5.8,2.5,10.9,6,15.3,10.4c4.3,4.5,7.8,9.7,10.3,15.8
			C422.1,77.8,423.3,84.4,423.3,91.7z M399.1,91.7c0-3.6-0.6-7-1.9-10.2c-1.3-3.1-3-5.9-5.2-8.2c-2.2-2.3-4.7-4.1-7.6-5.4
			c-2.9-1.3-6-1.9-9.3-1.9c-3.3,0-6.4,0.7-9.3,2.2c-2.9,1.4-5.5,3.4-7.6,5.7s-3.9,5.1-5.1,8.2c-1.2,3.1-1.9,6.3-1.9,9.6
			c0,3.6,0.6,7,1.9,10.1c1.2,3.1,2.9,5.8,5.1,8.1c2.2,2.3,4.7,4.1,7.6,5.4c2.9,1.3,6,2,9.3,2c3.3,0,6.4-0.7,9.3-2
			c2.9-1.3,5.5-3.1,7.6-5.4c2.2-2.3,3.9-5,5.2-8.1C398.4,98.7,399.1,95.3,399.1,91.7z"/>
		<path class="st1" d="M465,19.6c0,2.2-0.4,4.3-1.3,6.3s-2,3.6-3.5,5.1c-1.5,1.4-3.2,2.6-5.2,3.4c-2,0.9-4.1,1.3-6.3,1.3
			s-4.3-0.4-6.3-1.3c-2-0.9-3.7-2-5.1-3.4c-1.4-1.4-2.6-3.1-3.4-5.1c-0.9-1.9-1.3-4-1.3-6.3c0-2.2,0.4-4.2,1.3-6.2
			c0.9-2,2-3.7,3.4-5.1c1.4-1.4,3.1-2.6,5.1-3.4s4.1-1.3,6.3-1.3s4.3,0.4,6.3,1.3c2,0.9,3.7,2,5.2,3.4c1.5,1.4,2.6,3.1,3.5,5.1
			C464.6,15.4,465,17.5,465,19.6z"/>
		<rect x="436.6" y="45.3" class="st1" width="24.2" height="94.4"/>
		<path class="st1" d="M599.3,139.7h-24v-60c0-1.6-0.3-3.2-0.9-4.7c-0.6-1.5-1.5-2.8-2.6-3.9c-1.1-1.1-2.4-2-3.9-2.6
			c-1.5-0.6-3-0.9-4.7-0.9c-1.6,0-3.2,0.3-4.6,0.9c-1.4,0.6-2.7,1.5-3.8,2.6c-1.1,1.1-1.9,2.4-2.6,3.9c-0.6,1.5-0.9,3-0.9,4.7v60
			h-24.1v-60c0-1.6-0.3-3.2-0.9-4.7c-0.6-1.5-1.5-2.8-2.6-3.9c-1.1-1.1-2.4-2-3.9-2.6c-1.5-0.6-3-0.9-4.7-0.9
			c-1.6,0-3.2,0.3-4.6,0.9c-1.4,0.6-2.7,1.5-3.8,2.6c-1.1,1.1-1.9,2.4-2.6,3.9c-0.6,1.5-0.9,3-0.9,4.7v60h-24.1V45.3h5.8l6.5,7.2
			c3.3-2.8,7-5,11.1-6.6c4-1.6,8.2-2.3,12.6-2.3c4.4,0,8.7,0.8,12.9,2.5c4.2,1.6,7.9,4.5,11.1,8.6c1.5-2,3.1-3.7,5-5.1
			c1.9-1.4,3.9-2.6,6-3.4c2.1-0.9,4.2-1.5,6.5-1.9c2.2-0.4,4.4-0.6,6.6-0.6c5,0,9.7,0.9,14.1,2.8c4.4,1.9,8.2,4.5,11.5,7.7
			c3.3,3.3,5.8,7.1,7.7,11.5c1.9,4.4,2.8,9.1,2.8,14.1V139.7z"/>
	</g>
	<g>
		<path class="st2" d="M100.9,139.7H14.3V13.3h86.7v25.3H39.6v25.3h41.5v25.3H39.6v25.2h61.4V139.7z"/>
		<path class="st2" d="M204.8,139.7H199l-9.3-13c-2.3,2.1-4.7,4-7.3,5.8c-2.6,1.8-5.2,3.4-8.1,4.7c-2.8,1.3-5.7,2.4-8.7,3.1
			c-3,0.8-6,1.1-9,1.1c-6.6,0-12.9-1.3-18.7-3.7c-5.9-2.5-11-6-15.3-10.4c-4.4-4.4-7.8-9.7-10.4-15.8c-2.5-6.1-3.8-12.7-3.8-19.9
			c0-7.1,1.3-13.7,3.8-19.8c2.5-6.1,6-11.4,10.4-15.9c4.4-4.5,9.5-8,15.3-10.5c5.8-2.5,12.1-3.8,18.7-3.8c2.1,0,4.3,0.2,6.6,0.5
			c2.3,0.4,4.5,0.9,6.6,1.7c2.1,0.8,4.2,1.8,6,3.1c1.9,1.3,3.5,2.9,4.8,4.8V7.7h24.2V139.7z M180.5,91.7c0-3.3-0.6-6.5-1.9-9.6
			c-1.3-3.1-3-5.8-5.2-8.2s-4.7-4.3-7.6-5.7c-2.9-1.4-6-2.2-9.3-2.2s-6.4,0.6-9.3,1.8c-2.9,1.2-5.4,2.9-7.6,5.1
			c-2.1,2.2-3.8,4.9-5.1,8.1c-1.2,3.2-1.9,6.8-1.9,10.8c0,3.5,0.6,6.8,1.9,9.9c1.2,3.1,2.9,5.8,5.1,8.2c2.1,2.4,4.7,4.2,7.6,5.6
			c2.9,1.4,6,2,9.3,2s6.4-0.7,9.3-2.2c2.9-1.4,5.5-3.4,7.6-5.7c2.2-2.4,3.9-5.1,5.2-8.2C179.9,98.1,180.5,95,180.5,91.7z"/>
		<path class="st2" d="M292.5,128.7c-1.9,1.8-4,3.4-6.2,5c-2.2,1.6-4.5,2.9-6.9,4.1c-2.4,1.1-4.9,2.1-7.5,2.7c-2.6,0.7-5.2,1-7.8,1
			c-5.8,0-11.3-1-16.4-3.1c-5.1-2.1-9.6-5-13.4-8.8c-3.9-3.8-6.9-8.4-9.1-13.8c-2.2-5.4-3.3-11.5-3.3-18.3V45.3h24v52.2
			c0,3.2,0.5,6,1.5,8.5c1,2.5,2.3,4.6,3.9,6.3c1.6,1.7,3.6,3,5.8,3.9c2.2,0.9,4.6,1.3,7.1,1.3c2.5,0,4.8-0.6,7-1.7
			c2.2-1.1,4.1-2.7,5.8-4.5c1.6-1.9,2.9-4,3.9-6.4c0.9-2.4,1.4-4.8,1.4-7.4V45.3h24.1v94.4h-5.8L292.5,128.7z"/>
		<path class="st2" d="M419.1,91.7c0,7.4-1.3,14.2-3.8,20.3c-2.5,6.1-6,11.4-10.3,15.7c-4.4,4.4-9.4,7.8-15.3,10.2
			c-5.8,2.4-12.1,3.6-18.8,3.6c-6.6,0-12.9-1.2-18.7-3.7c-5.9-2.5-11-5.9-15.3-10.3c-4.4-4.4-7.8-9.7-10.4-15.7
			c-2.5-6.1-3.8-12.8-3.8-20.1V7.7h24.2v44.1c1.3-1.6,2.9-3.1,4.7-4.4c1.9-1.3,3.9-2.4,6-3.2c2.1-0.8,4.4-1.5,6.7-1.9
			c2.3-0.4,4.5-0.7,6.7-0.7c6.7,0,13,1.2,18.8,3.7c5.8,2.5,10.9,6,15.3,10.4c4.3,4.5,7.8,9.7,10.3,15.8
			C417.9,77.8,419.1,84.4,419.1,91.7z M394.9,91.7c0-3.6-0.6-7-1.9-10.2c-1.3-3.1-3-5.9-5.2-8.2c-2.2-2.3-4.7-4.1-7.6-5.4
			c-2.9-1.3-6-1.9-9.3-1.9c-3.3,0-6.4,0.7-9.3,2.2c-2.9,1.4-5.5,3.4-7.6,5.7c-2.2,2.4-3.9,5.1-5.1,8.2c-1.2,3.1-1.9,6.3-1.9,9.6
			c0,3.6,0.6,7,1.9,10.1c1.2,3.1,2.9,5.8,5.1,8.1c2.2,2.3,4.7,4.1,7.6,5.4c2.9,1.3,6,2,9.3,2c3.3,0,6.4-0.7,9.3-2
			c2.9-1.3,5.5-3.1,7.6-5.4c2.2-2.3,3.9-5,5.2-8.1C394.2,98.7,394.9,95.3,394.9,91.7z"/>
		<path class="st3" d="M460.8,19.6c0,2.2-0.4,4.3-1.3,6.3s-2,3.6-3.5,5.1c-1.5,1.4-3.2,2.6-5.2,3.4c-2,0.9-4.1,1.3-6.3,1.3
			s-4.3-0.4-6.3-1.3c-2-0.9-3.7-2-5.1-3.4c-1.4-1.4-2.6-3.1-3.4-5.1c-0.9-1.9-1.3-4-1.3-6.3c0-2.2,0.4-4.2,1.3-6.2
			c0.9-2,2-3.7,3.4-5.1c1.4-1.4,3.1-2.6,5.1-3.4s4.1-1.3,6.3-1.3s4.3,0.4,6.3,1.3c2,0.9,3.7,2,5.2,3.4c1.5,1.4,2.6,3.1,3.5,5.1
			C460.4,15.4,460.8,17.5,460.8,19.6z"/>
		<rect x="432.4" y="45.3" class="st2" width="24.2" height="94.4"/>
		<path class="st2" d="M595.1,139.7h-24v-60c0-1.6-0.3-3.2-0.9-4.7c-0.6-1.5-1.5-2.8-2.6-3.9c-1.1-1.1-2.4-2-3.9-2.6
			c-1.5-0.6-3-0.9-4.7-0.9c-1.6,0-3.2,0.3-4.6,0.9c-1.4,0.6-2.7,1.5-3.8,2.6c-1.1,1.1-1.9,2.4-2.6,3.9c-0.6,1.5-0.9,3-0.9,4.7v60
			h-24.1v-60c0-1.6-0.3-3.2-0.9-4.7c-0.6-1.5-1.5-2.8-2.6-3.9c-1.1-1.1-2.4-2-3.9-2.6c-1.5-0.6-3-0.9-4.7-0.9
			c-1.6,0-3.2,0.3-4.6,0.9c-1.4,0.6-2.7,1.5-3.8,2.6c-1.1,1.1-1.9,2.4-2.6,3.9c-0.6,1.5-0.9,3-0.9,4.7v60H475V45.3h5.8l6.5,7.2
			c3.3-2.8,7-5,11.1-6.6c4-1.6,8.2-2.3,12.6-2.3c4.4,0,8.7,0.8,12.9,2.5c4.2,1.6,7.9,4.5,11.1,8.6c1.5-2,3.1-3.7,5-5.1
			c1.9-1.4,3.9-2.6,6-3.4c2.1-0.9,4.2-1.5,6.5-1.9c2.2-0.4,4.4-0.6,6.6-0.6c5,0,9.7,0.9,14.1,2.8c4.4,1.9,8.2,4.5,11.5,7.7
			c3.3,3.3,5.8,7.1,7.7,11.5c1.9,4.4,2.8,9.1,2.8,14.1V139.7z"/>
	</g>
</g>
</svg>
